<?xml version="1.0" standalone="no"?>
<!DOCTYPE svg PUBLIC "-//W3C//DTD SVG 20010904//EN"
 "http://www.w3.org/TR/2001/REC-SVG-20010904/DTD/svg10.dtd">
<svg version="1.0" xmlns="http://www.w3.org/2000/svg"
 width="300.000000pt" height="300.000000pt" viewBox="0 0 300.000000 300.000000"
 preserveAspectRatio="xMidYMid meet">
<metadata>
Created by potrace 1.11, written by Peter Selinger 2001-2013
</metadata>
<g transform="translate(0.000000,300.000000) scale(0.100000,-0.100000)"
fill="#000000" stroke="none">
<path d="M1525 2994 c-5 -1 -53 -5 -105 -8 -112 -6 -154 -11 -195 -20 -32 -7
-66 -14 -102 -22 -48 -10 -200 -68 -277 -105 -109 -54 -145 -75 -240 -146
-233 -175 -414 -420 -510 -691 -44 -123 -65 -219 -82 -367 -5 -46 -5 -236 1
-275 2 -19 7 -55 10 -80 8 -65 43 -204 70 -280 37 -105 129 -290 147 -298 5
-2 8 -10 8 -18 0 -8 4 -14 8 -14 4 0 15 -12 24 -28 102 -169 362 -390 578
-489 143 -66 332 -122 430 -129 25 -2 45 -4 45 -4 0 -10 244 -13 310 -5 22 3
56 8 75 11 19 3 46 7 60 9 41 4 181 44 250 71 247 97 448 241 614 439 53 63
116 152 116 164 0 5 4 11 9 13 12 4 92 160 115 223 10 28 24 64 31 80 13 29
62 244 64 275 0 8 2 33 5 55 7 57 7 255 1 288 -3 15 -7 44 -10 65 -13 112 -65
306 -98 367 -6 11 -12 22 -12 25 -4 20 -43 95 -86 167 -93 154 -219 296 -357
403 -42 33 -82 65 -89 70 -7 6 -15 10 -19 10 -4 0 -15 6 -23 14 -17 15 -146
81 -221 114 -50 22 -196 69 -238 77 -26 5 -48 9 -100 19 -12 3 -59 8 -105 12
-45 3 -84 8 -87 9 -3 1 -9 1 -15 -1z"/>
</g>
</svg>
